<svg xmlns="http://www.w3.org/2000/svg" xmlns:svg="http://www.w3.org/2000/svg" id="svg3869" width="22" height="22" version="1.1"><metadata id="metadata3874"/><g id="layer1" transform="translate(-326,-534.3622)"><path style="opacity:1;fill:#4d4d4d;fill-opacity:1;stroke:none" id="rect4108" d="M 5 3 L 5 4 L 5 5 L 3 5 L 3 8 L 5 8 L 5 14 L 3 14 L 3 17 L 5 17 L 5 19 L 6 19 L 19 19 L 19 18 L 19 4 L 19 3 L 5 3 z M 6 4 L 8 4 L 8 18 L 6 18 L 6 4 z M 9 4 L 18 4 L 18 18 L 9 18 L 9 4 z" transform="translate(326,534.3622)"/></g></svg>