<svg xmlns="http://www.w3.org/2000/svg" xmlns:osb="http://www.openswatchbook.org/uri/2009/osb" xmlns:svg="http://www.w3.org/2000/svg" xmlns:xlink="http://www.w3.org/1999/xlink" id="svg4355" width="22" height="22" version="1.1"><defs id="defs4357"><linearGradient id="linearGradient8841"><stop style="stop-color:#4d4d4d;stop-opacity:1" id="stop8843" offset="0"/><stop id="stop8873" offset=".169" style="stop-color:#4d4d4d;stop-opacity:.49803922"/><stop style="stop-color:#4d4d4d;stop-opacity:0" id="stop8845" offset="1"/></linearGradient><linearGradient id="linearGradient6869" osb:paint="solid"><stop style="stop-color:#000;stop-opacity:1" id="stop6871" offset="0"/></linearGradient><linearGradient id="linearGradient8847" x1="538.571" x2="562.571" y1="770.934" y2="746.934" gradientTransform="matrix(1,0,0,1.3333333,-2.265624e-6,-251.97785)" gradientUnits="userSpaceOnUse" spreadMethod="reflect" xlink:href="#linearGradient8841"/></defs><metadata id="metadata4360"/><g id="layer1" transform="translate(-544.57141,-742.93359)"><path id="path1141" style="opacity:.97233199000000003;fill:#000;fill-opacity:1;stroke:none;stroke-opacity:1" d="m 559.66373,763.82452 -0.35083,-0.0423 c 0.42344,-0.0696 0.72977,-0.0457 0.40033,-0.10523 -0.0494,0.14778 -1.36345,0.0151 -1.41218,0.16268 l -0.23131,-0.0312 c 0.0662,0.001 0.0767,-0.006 0.14234,-0.006 -0.44975,-0.0709 -0.33407,0.10678 -0.9135,0.0855 -0.20193,-0.008 -0.34288,-0.0331 -0.20517,-0.0505 l -0.44995,0.0364 c -0.13098,-0.001 -0.0988,-0.0286 0.0313,-0.0259 l -0.68632,0.0133 0.007,-0.002 c -0.098,0.0233 -0.3198,0.0594 -0.42812,0.0741 -0.17439,-0.021 0.0875,-0.0152 0.0427,-0.0342 l -0.37999,0.0358 c -0.15479,-0.0382 0.16013,-0.0752 0.42262,-0.0698 -0.35489,-0.14745 -0.3153,0.0373 -1.08124,-0.0489 l 0.35877,-0.019 c -0.23129,-0.0835 -0.51132,-0.0535 -0.91701,-0.1059 0.0962,0.0274 0.81216,0.13143 0.39978,0.16851 -0.1163,-0.008 -0.26941,-0.0173 -0.49195,0.0133 -9.4e-4,-0.0525 -0.21925,-0.0395 -0.49116,-0.0367 l 0.0187,-0.0696 c -0.29388,0.0212 -0.27064,0.0556 -0.44359,0.087 -0.32758,-0.007 -0.39547,-0.0608 -0.47257,-0.10634 -0.52459,-0.008 0.36222,0.0866 -0.25863,0.0998 -0.43625,-0.0267 -0.74258,0.001 -1.26453,0.0434 -0.30533,-0.0238 0.0535,-0.043 -0.0562,-0.0627 l -0.27065,0.0556 c -0.0663,-0.001 -0.0446,-0.0192 -0.034,-0.027 -0.22801,0.0214 -0.0188,0.0694 -0.37733,0.0886 -0.0965,0.0768 -0.73609,-0.11174 -1.17991,-0.025 -0.10947,-0.019 0.0529,-0.0429 0.0195,-0.0696 -0.1461,0.0133 -0.25037,0.0224 -0.33224,0.03 -0.0545,0 -0.0946,-0.019 -0.13008,-0.041 -0.0353,-0.0239 -0.0684,-0.0536 -0.10281,-0.10645 -0.0171,-0.0266 -0.0339,-0.0597 -0.0494,-0.10247 -0.007,-0.0218 -0.0138,-0.0459 -0.0196,-0.0733 -0.007,-0.0276 -0.008,-0.0555 -0.0114,-0.10224 l 0.0331,-0.58664 c -0.0378,0.43105 -0.0827,-0.11972 -0.11962,-0.60216 -0.0184,0.15284 -0.0343,0.28351 -0.0419,0.37118 l -0.0272,-0.76988 c 0.007,-0.0933 0.0255,-0.0152 0.0468,0.11093 -0.005,-0.0527 -0.008,-0.10235 -0.0114,-0.14111 0.0186,-0.27535 0.0479,-0.13249 0.0759,0.0649 -0.0103,0.094 -0.0209,0.18688 -0.0311,0.2774 0.0307,0.19024 0.0646,0.36809 0.0941,0.32846 -0.007,-0.0498 -0.0103,-0.14641 -0.0135,-0.25236 0.008,0.0498 0.0157,0.0813 0.0207,0.0585 0.007,-0.026 -0.007,-0.10668 -0.0189,-0.23237 l 0.0563,-0.17513 -0.0224,-0.0429 0.0353,-1.00728 c -0.0567,-0.72067 -0.14005,-1.34763 -0.16328,-2.49152 0.0413,0.28386 0.0675,0.061 0.11629,0.0766 -0.0519,0.31216 0.022,0.88589 0.0114,1.47876 0.007,-0.30934 0.0288,-0.24136 0.0369,-0.16267 l -0.0471,-1.05731 c 0.04,0.0237 0.0299,-0.22453 0.0466,-0.50074 -0.079,0.20877 -0.0528,-0.78808 -0.0766,-1.21829 0.0265,-0.027 0.0536,0.0767 0.0472,0.60123 0.0595,-0.5791 -0.0928,-0.74817 -0.0422,-1.31668 6.1e-4,0.12797 -0.002,0.1972 0.0103,0.24784 -0.0237,-0.29934 -0.005,-1.03126 0.0181,-0.85899 l 5.2e-4,0.12771 c 0.008,-0.85083 5.9e-4,-2.5901 -0.0664,-2.71711 0.008,-0.007 0.0809,0.11147 0.0946,0.16288 l -0.22587,-1.51819 c 0.0577,0.13359 0.19494,-0.37958 0.22751,0.32595 0.007,-0.20262 0.0179,-0.45321 -0.002,-0.88031 -0.007,0.13821 -0.0835,0.34448 -0.0886,0.15562 0.0641,-0.51838 0.0344,-0.35993 0.0891,-0.99892 -0.0114,0.20711 -0.10282,-0.023 -0.0999,-0.35036 0.0136,0.051 0.0892,-0.0271 0.0987,0.0927 l -0.0888,-0.81486 c 0.0159,0.20348 0.0752,0.0359 0.10027,-0.14629 -0.0172,0.0847 9.6e-4,-0.70444 -0.007,-0.9216 l -0.0206,0.34529 c 0.0136,-0.91994 -0.12483,-0.90871 -0.12011,-1.82135 0.0185,0.11043 0.1129,0.2728 0.12407,-0.19131 -0.0455,-0.21272 -0.21855,-0.94188 -0.25363,-1.74938 l 0.0262,-0.15464 c 0,0 -9.6e-4,-0.039 -0.005,-0.0971 -0.002,-0.0636 -3.8e-4,-0.164 0.0199,-0.25482 0.019,-0.0925 0.0535,-0.17803 0.0849,-0.23658 0.0322,-0.0577 0.0585,-0.0913 0.0585,-0.0913 -0.0552,0.0965 -0.11717,0.25846 -0.11693,0.44902 -2.8e-4,0.0462 0.005,0.0968 0.0103,0.14066 0.007,0.0441 0.0114,0.0895 0.0191,0.13571 0.0114,0.0929 0.0254,0.1894 0.0386,0.2875 0.0516,0.39279 0.10139,0.81123 0.12947,1.10683 0.0206,-0.34415 0.0307,-0.096 0.0283,-0.61141 0.0245,-0.18203 0.0369,0.28097 0.0386,0.43268 l 0.0157,-1.20036 c -0.0136,0.0133 -0.0231,-0.0373 -0.0315,-0.12025 -9.6e-4,-0.0192 -0.002,-0.0391 -0.007,-0.0607 -9.6e-4,-0.0133 -0.002,-0.0276 -0.002,-0.0424 -5.9e-4,-0.0299 0.002,-0.0625 0.0103,-0.0943 0.0137,-0.0648 0.0468,-0.12172 0.0735,-0.15958 0.0273,-0.0373 0.0484,-0.0595 0.0387,-0.0713 0,0 -0.008,0.007 -0.0239,0.0192 -0.0137,0.0152 -0.0348,0.0338 -0.0549,0.0648 -0.0414,0.0589 -0.0766,0.16041 -0.0743,0.26188 0.0136,0.31677 0.0263,0.63352 0.0263,0.63352 -0.0265,0.0266 -0.0642,-0.16203 -0.094,-0.46345 -0.002,-0.0378 -0.008,-0.077 -0.0103,-0.118 -9.6e-4,-0.022 -0.002,-0.0374 -0.002,-0.0549 -9.6e-4,-0.0172 -3.5e-4,-0.035 -1.9e-4,-0.0531 0.002,-0.0722 0.0198,-0.14991 0.053,-0.22006 0.0323,-0.071 0.0816,-0.13223 0.14084,-0.17209 0.0297,-0.0192 0.0616,-0.035 0.095,-0.0418 0.0165,-0.002 0.0335,-0.006 0.0504,-0.006 0.0163,-0.001 0.0377,-7e-5 0.0564,0 0.0787,0.0151 0.0491,0.047 9.6e-4,0.079 -0.0566,0.0306 -0.0883,0.0674 -0.0841,0.0793 0.007,-0.006 0.0161,-0.007 0.0297,-0.0133 0.005,-0.001 0.0198,-0.001 0.0321,-0.002 0.0137,-0.001 0.0272,-0.002 0.0421,-0.002 0.0595,-0.002 0.13217,-0.012 0.20386,-0.0133 0.14354,-0.006 0.28422,-0.007 0.31251,0.001 l -0.26186,0.0392 c 0.34364,0.0276 0.56088,-0.0969 0.97391,-0.0272 0.14264,0.002 0.42564,0.0945 0.45036,0.0509 -0.23254,-0.0833 -0.278,-0.3413 -0.12292,-0.40401 0.0501,0.006 0.74855,0.0796 0.91132,0.12065 0.23473,0.0655 -0.35246,0.15563 -0.1526,0.212 0.008,-0.0212 0.13826,-0.0445 0.19236,-0.0528 0.14975,0.0173 -0.0618,0.0616 0.26331,0.0529 0.0543,-0.0741 0.66164,0.006 0.15377,-0.0628 0.31818,-0.021 0.33819,0.0152 0.71186,0.0133 -0.11885,-0.0475 0.33548,-0.16306 0.65425,-0.1842 -0.019,0.0192 0.0528,0.0434 0.0875,0.0547 0.65229,0.006 1.00246,0.0404 1.61065,0.0411 0.0562,0.0191 0.34962,0.0395 0.22456,0.0714 0.0875,-0.0133 0.16789,-0.0382 0.35551,-0.0401 0.36303,0.0638 -0.41832,0.008 -0.1416,0.087 0.0238,-0.0431 0.48523,-0.0594 0.75245,-0.0866 -0.0823,-0.0665 -0.61737,-0.0133 -0.88499,0.0152 -9.6e-4,-0.0915 0.46463,-0.18772 1.1004,-0.23023 0.50516,-0.023 0.21904,0.0595 0.3067,0.0463 0.94903,0.0173 0.80851,-0.16025 1.5966,-0.0942 0.31269,0.0585 0.0136,0.11627 0.0835,0.1584 -0.41156,0.0219 -0.6318,-0.0373 -0.91088,-0.035 l 0.34348,0.0277 c -0.13096,0.0192 -0.40564,0.0342 -0.5554,0.0173 0.26209,0.0525 1.60334,0.008 2.33553,0.0585 0.13006,-0.0192 0.35472,-0.0401 0.24841,-0.0634 l -0.23171,0.007 c -0.21294,-0.0471 0.4361,-0.0651 0.14279,-0.0874 0.31084,-0.0332 0.65917,-0.0853 1.09671,-0.0589 l 0.0823,0.0668 c -0.008,-0.0192 -0.28599,-0.0397 -0.40894,-0.0192 0.18231,-0.0297 0.67085,0.0907 0.87066,0.001 l -0.30672,-0.046 c 0.31205,-0.0337 0.69772,-0.10435 1.08547,-0.0832 -0.17642,-0.0657 -0.0894,0.007 -0.3649,-0.0695 0.23886,0.096 -0.99186,-0.002 -0.60818,0.0968 -0.2827,-0.0894 -0.48928,-0.038 -0.85888,-0.11414 0.0114,0.0218 0.13097,0.0421 -0.19459,0.0315 -0.015,0.006 -0.0493,0.0151 -0.0713,0.019 -0.0103,-7.4e-4 -0.0136,-0.001 -0.022,-0.001 0.007,9.5e-4 0.0114,0.001 0.0179,0.001 -0.0137,0.001 -0.0154,0.002 0.007,8.6e-4 0.0776,0.008 0.14038,0.0211 0.16581,0.0336 -0.16156,0.0504 -0.67916,0.0489 -0.85417,0.0749 -0.19314,-0.008 0.0808,-0.0253 -0.0248,-0.0485 l -0.26144,0.0392 c -0.026,-0.0489 -0.51319,-0.081 -0.0582,-0.10977 l -0.40956,-0.001 c -0.24107,-0.0274 -0.5727,-0.0382 -0.77727,-0.0173 -0.19317,-0.012 -0.48786,0.0538 -0.31959,0.0173 l -0.64229,0.0302 -0.007,-0.0133 c -0.63373,-0.006 -1.30453,0.0809 -2.02899,-0.007 -0.21333,0.0133 -0.43381,0.0274 -0.79079,0.0133 l -0.0694,-0.0423 c -0.2739,0.0152 -0.82252,-0.0423 -0.94025,0.001 -0.29554,-0.1136 -1.32942,-0.0248 -1.81116,-0.0449 l -0.0182,0.0554 c -0.3316,-0.001 -0.64959,0.0133 -1.06118,0.0347 l 0.0253,0.0489 c -0.17746,0.021 -0.40553,0.008 -0.65938,-0.001 -0.12688,-0.006 -0.26039,-0.0133 -0.3971,-0.0192 -0.0684,-0.001 -0.13778,-0.002 -0.20746,-0.006 -0.0972,-9e-4 -0.19605,0.0326 -0.28271,0.0963 0.0206,-0.0239 0.0774,-0.0693 0.15178,-0.0905 0.0369,-0.008 0.0774,-0.0173 0.11706,-0.0173 l 0.0151,-7e-5 0.0103,7.5e-4 c 0.007,5.4e-4 0.0137,0.001 0.0206,0.001 0.0136,0.001 0.0269,0.001 0.0394,0.002 l -0.0632,-0.008 -0.007,-0.001 -0.0103,-4.4e-4 -0.0225,-5.4e-4 c -0.015,-1.2e-4 -0.0304,-5.6e-4 -0.0455,0.001 -0.061,0.002 -0.12176,0.0274 -0.17936,0.0595 -0.11503,0.066 -0.21545,0.18374 -0.28087,0.33331 -0.0334,0.0742 -0.0582,0.15646 -0.0724,0.24184 -0.007,0.0429 -0.0114,0.0867 -0.015,0.12957 -9.6e-4,0.0431 -0.002,0.0921 -9.6e-4,0.11612 0.002,0.11986 0.007,0.2397 0.0114,0.35889 0.0172,0.47659 0.0372,0.94233 0.007,1.36131 0.0136,0.20874 0.008,0.35995 -3.8e-4,0.50636 -10e-5,-0.0192 -6e-4,-0.037 -9.6e-4,-0.0516 -7e-5,0.0212 -2.4e-4,0.0531 -4.7e-4,0.0855 -0.007,0.0927 -0.0136,0.18709 -0.0188,0.28999 0.008,-0.0875 0.0157,-0.17103 0.0191,-0.24389 5.9e-4,0.16104 0.007,0.40517 0.0139,0.64461 l -0.038,0.10191 c 3.8e-4,0.0192 6e-4,0.0352 9.5e-4,0.0555 -0.0137,0.23496 0.018,0.18879 0.0468,0.0635 0.007,0.12052 0.0137,0.23097 0.0229,0.3166 -0.0615,0.19091 0.0207,0.62805 -0.0445,0.88848 0.032,0.16122 0.0241,1.20345 0.0912,1.33103 -0.008,0.007 -0.0139,0.0786 -0.0139,-0.0506 -0.007,0.26692 -0.0153,0.53357 0.002,0.77298 l -0.0484,0.1132 0.0649,0.58278 c -0.0295,0.35401 -0.0468,0.50075 -0.0838,0.14929 0.0573,0.84884 0.0216,0.68865 0.0782,1.41051 l -0.0312,-0.0353 c 9.6e-4,0.25793 0.0429,0.67044 0.0172,0.82609 -0.0594,0.57715 -0.007,2.85602 -0.0634,4.33755 0.092,-0.28742 -0.0412,0.68871 0.0299,0.7475 -0.0217,0.0866 -0.034,0.29273 -0.053,0.053 0.0215,0.75614 -0.0344,1.13607 0.0255,1.65814 -0.0218,0.0869 -0.032,-0.16187 -0.0446,-0.085 0.005,0.0609 0.019,0.24025 0.007,0.31896 -0.0137,0.0769 -0.0184,-0.11095 -0.0277,-0.23035 0.002,0.77241 0.0707,0.85046 0.1337,0.90671 -0.0298,0.39144 -0.0255,0.58672 0.0157,0.86936 -0.0206,0.1364 -0.0421,0.36367 -0.0495,-0.11626 -9.5e-4,0.13484 -0.008,0.54738 -0.0103,0.92941 0,0.0238 -4e-5,0.0475 -9e-5,0.0713 0,0.0233 -2.6e-4,0.0451 9.6e-4,0.0783 5.4e-4,0.0304 0.002,0.0603 0.007,0.0892 0.002,0.0297 0.008,0.0575 0.0138,0.085 0.0229,0.1101 0.0626,0.20202 0.10431,0.26945 0.0854,0.13629 0.16983,0.17706 0.17938,0.16764 0.0294,0.0338 0.10958,0.0854 0.19441,0.0969 0.0208,0.002 0.042,0.001 0.062,0.002 0.0186,0 0.0321,-0.001 0.0468,-0.001 0.0281,-0.001 0.0512,-0.002 0.0641,-0.006 0.43973,0.002 0.47847,0.008 0.91025,0.002 l -0.11986,-0.008 c 0.17055,-0.0841 0.35898,-0.0192 0.70714,-0.0291 l -0.0103,0.007 c 0.79831,0.0605 0.3447,-0.0292 1.13218,0.0401 l -0.0427,-0.0518 c 0.0733,-0.112 0.69772,0.066 1.15479,0.0233 l -0.16499,-0.0298 c 0.24964,-0.0382 0.6977,0.15256 0.9484,0.16659 0.0546,0.008 -0.0863,0.0151 -0.16253,0.023 0.65633,0.0664 0.0851,-0.0682 0.57412,-0.0841 0.0901,0.037 -0.1163,0.0936 0.21296,0.10058 0.16397,0.0299 0.95474,-0.11986 1.40386,-0.0489 -0.0991,-0.0283 -0.19726,-0.0568 0.0299,-0.0777 0.34816,-0.008 0.94125,0.10733 1.25573,0.0173 0.0442,0.006 0.0609,0.0151 0.0628,0.0223 0.26618,-0.0231 0.86501,-0.0382 1.0253,-0.0872 0.24597,0.18013 1.65472,-0.0875 1.6488,0.0786 l 0.81867,-0.007 -0.0216,0.0173 c 0.52339,0.008 0.7084,-0.0287 0.89238,-0.0689 0.121,0.008 0.0324,0.0271 0.0225,0.0358 0.38233,0.0173 0.59253,0.0233 0.78728,0.0151 0.0973,-0.002 0.19079,-0.008 0.30008,-0.0233 0.0545,-0.006 0.11313,-0.0133 0.17806,-0.0211 0.0323,-0.002 0.0664,-0.007 0.10257,-0.0133 0.0186,-0.001 0.0371,-0.006 0.0567,-0.007 0.023,-0.002 0.0468,-0.007 0.0701,-0.0173 0,0 0.007,0.001 0.0136,0.006 0.007,0.001 0.0193,0.006 0.0307,0.008 0.0224,0.006 0.0462,0.012 0.0462,0.012 0.0137,-0.007 0.0294,-0.0191 0.0492,-0.0297 0.019,-0.0151 0.042,-0.0269 0.0657,-0.0475 0.0483,-0.039 0.10453,-0.0959 0.15604,-0.18035 0.0512,-0.084 0.0976,-0.19617 0.12024,-0.33141 0.005,-0.0338 0.0103,-0.0687 0.0114,-0.10457 9.6e-4,-0.0172 9.6e-4,-0.035 0.002,-0.0524 3.8e-4,-0.0152 5.9e-4,-0.0279 9.5e-4,-0.0424 9.6e-4,-0.0568 0.002,-0.1148 0.005,-0.17511 0.0114,-0.47992 0.0221,-1.05912 -6.1e-4,-1.57576 0.005,0.008 0.0114,0.0316 0.0174,0.1136 -0.046,-1.16238 0.10852,-2.78284 -0.034,-3.20881 l -0.0351,-0.76713 c -0.0103,0.99244 -0.0618,-0.14779 -0.0856,0.26049 -0.008,-0.3903 0.043,-1.00905 0.0504,-0.52938 l -0.008,0.0749 c 0.0742,0.17621 0.0264,-1.23318 0.0767,-1.20651 -0.002,-1.95283 0.0374,-3.85628 0.0405,-5.68543 l -0.0577,0.21071 0.002,-0.63807 c 0.0136,-0.16764 0.045,-0.22479 0.0426,0.23035 0.0327,-0.23941 -0.0274,-0.76343 -0.0399,-0.77637 0.0233,-0.89129 0.0672,0.34814 0.0686,0.0749 l -0.005,-0.3712 -0.007,0.0837 c -0.0237,-0.30093 -0.0485,-0.32765 -0.0458,-0.87475 0.0114,-0.34611 0.0356,-0.17762 0.0378,-0.31382 0.005,8.6e-4 0.007,-0.0452 9.6e-4,-0.20919 l 0.005,-0.80385 -0.0457,0.3214 c -0.0224,-0.35627 0.002,-0.75584 -0.0491,-0.38485 0.0103,-0.0682 0.0178,-0.16606 0.0243,-0.28592 0.002,-0.0603 0.007,-0.12544 0.008,-0.19529 9.5e-4,-0.035 0.002,-0.071 0.002,-0.10834 5.3e-4,-0.0173 9.6e-4,-0.0339 9.6e-4,-0.051 l 9.4e-4,-0.002 c 0.007,-0.0297 0.008,-0.0644 0.008,-0.0986 2.8e-4,-0.0684 -0.007,-0.13415 0.007,-0.14992 -0.0333,-0.0471 -0.0327,-0.094 -0.0286,-0.15139 -0.008,0.0151 -0.0608,0.0231 -0.0545,-0.0266 0.10555,0.0192 0.0459,-0.0912 0.12202,-0.1313 -0.0504,0.0359 -0.0114,-0.14129 -0.0841,-0.0852 0.008,-0.0412 0.0395,-0.001 0.0644,-0.0339 -0.0411,-0.0988 0.0265,-0.21759 0.0114,-0.33963 -0.0137,-0.001 -0.0352,0.0192 -0.0558,-0.007 l 0.0693,-0.0645 c -0.007,-0.024 -0.0802,-0.022 -0.032,-0.0663 -0.0114,0.006 -0.0294,0.0152 -0.0337,-6.6e-4 0.0677,-0.23902 -0.0553,-0.48855 0.0715,-0.73136 -0.0267,0.0331 -0.0296,0.012 -0.0306,-0.0152 -0.007,0.0173 -0.0342,-3.6e-4 -0.0532,0.002 l 0.0522,-0.1018 c -0.0522,-0.0192 -0.002,-0.10877 -0.0535,-0.11972 l 0.008,0.0322 c -0.059,-0.043 -0.13097,0.0602 -0.20654,0.0536 0.0669,0.0479 -0.0992,0.12651 -0.002,0.20497 -0.0156,0.0173 -0.0245,-0.0152 -0.0419,-0.006 0.0324,0.0192 0.0392,0.0439 0.0248,0.0887 l -0.007,-0.002 c 0.007,0.12545 -0.024,0.1791 -0.0451,0.31987 l 0.0374,-0.012 c -0.005,0.0305 -0.0166,0.0368 -0.0262,0.0509 0.0567,0.0344 0.002,-0.085 0.0656,-0.0535 -0.0759,0.0402 -9.6e-4,0.21334 -0.0875,0.24049 -4.7e-4,0.0466 0.0433,-0.0151 0.0426,0.033 l -0.0232,0.0133 0.0301,0.0133 c -0.005,0.0305 -0.0342,0.0459 -0.0541,0.047 0.002,-0.007 -0.007,-0.021 -0.008,-0.0292 -0.0275,0.0397 0.008,0.11174 4.5e-4,0.12543 l 0.015,-0.0449 c 0.0219,0.12678 -0.008,0.28215 0.0386,0.40486 l 0.0175,-0.008 c 0.0327,0.094 -0.0195,0.0749 -0.005,0.17805 l -0.005,-0.002 c 0.0175,0.021 0.0263,0.0477 0.0245,0.0763 -0.0206,-0.0259 -0.04,0.049 -0.0631,0.0152 0.0352,0.10147 0.0275,0.0505 0.093,0.1172 l -0.0294,0.0151 c 0.0264,0.023 0.0403,0.0249 0.0479,0.0761 -0.0252,-0.0424 -0.0444,0.0331 -0.0779,-0.0152 -0.032,0.0541 -0.0158,0.0942 -0.002,0.12678 0.007,0.0173 0.0114,0.031 0.008,0.0444 -9.5e-4,0.006 -0.005,0.0133 -0.008,0.0192 -9.6e-4,0.001 -0.002,0.001 -0.005,0.002 l -0.002,0.001 -0.002,0.0245 c -0.005,0.0336 -0.008,0.0661 -0.015,0.0988 0.0203,0.13104 0.033,0.13487 0.0414,0.0715 0.005,-0.0318 0.007,-0.0802 0.008,-0.13808 5e-4,-0.0151 9.5e-4,-0.0297 9.5e-4,-0.0452 l 3.6e-4,-0.0133 2.9e-4,-0.001 5.8e-4,-0.001 c 6.1e-4,-0.001 9.5e-4,-0.006 9.5e-4,-0.012 0.002,-0.026 -9.5e-4,-0.0549 0.007,-0.0411 0.0135,-0.008 0.0282,-0.001 0.0392,0.0173 0.007,0.007 0.008,0.0192 0.0114,0.0296 5.9e-4,0.001 9.6e-4,0.006 9.6e-4,0.007 2.6e-4,0.025 4.8e-4,0.0496 5.9e-4,0.0736 2e-4,0.0524 -1.6e-4,0.10236 -9.6e-4,0.14704 -9.5e-4,0.36466 -0.1035,0.62015 -0.102,1.53749 3.2e-4,-0.0913 -0.007,-0.0973 -0.007,-0.18858 -0.0206,0.34343 0.028,0.67265 -0.007,1.0939 0.0491,0.236 -0.002,0.54677 0.0595,0.61477 l -0.015,-0.84159 c 0.0163,0.47708 0.0895,0.9245 0.0538,1.71038 -0.0114,-0.0611 -0.0293,-0.295 -0.0386,-0.45576 -0.0186,0.22986 0.0114,0.44258 -0.007,0.68085 -0.0627,-0.068 -0.0136,-1.02279 -0.061,-1.53389 -0.0263,0.24672 0.0452,0.9669 -0.0224,0.71008 0.0862,0.36917 -0.0103,0.9039 0.0549,1.52519 l -0.0373,-0.0411 c 0.007,0.0981 0.0234,0.30206 0.0225,0.483 l -0.0485,-0.32762 c 0.0415,0.50293 -0.0363,0.96961 -0.0135,1.45213 -9.6e-4,-1.01013 0.0449,-0.22676 0.0725,-0.65383 0.0501,1.24583 -0.098,0.71649 -0.0801,2.11132 -0.007,-0.1888 0.0225,-0.70898 0.0397,-0.41365 -0.007,0.26552 -0.0221,0.61619 -0.0418,0.77921 0.007,0.92417 0.0385,-0.14188 0.0615,0.25148 -0.0459,0.31473 0.0188,0.45377 0.0332,0.85891 l -0.0381,0.001 c -0.0245,1.05316 0.0791,0.27931 0.0496,1.2274 l -0.0528,-0.40067 0.0136,0.49424 -0.0433,-0.10202 c 0.0321,0.53782 0.0239,0.70529 0.0114,1.23216 0.0267,-0.12279 0.069,0.069 0.0701,0.53529 -0.0225,0.31804 -0.0363,-0.17805 -0.0308,0.48299 -0.0238,-0.14931 -0.0537,-0.31271 -0.0187,-0.6005 -0.0114,-0.0297 -0.024,-0.14747 -0.0363,-0.17765 -0.0262,0.3425 -0.007,0.86093 -0.007,1.10032 9.5e-4,-0.0925 0.002,-0.20221 0.008,-0.25873 l 0.0528,0.95845 c -0.0136,0.15066 -0.0259,0.0312 -0.037,-0.0874 0.005,0.19425 0.0217,0.32843 0.0249,0.61393 -0.0311,-0.0737 -0.0628,-0.0565 -0.0777,-0.46031 l 0.0343,0.91321 c -0.0136,0.0609 -0.0369,0.46869 -0.0484,0.35005 -0.008,0.25317 0.007,0.56373 0.0202,0.89475 0.007,0.16554 0.0136,0.33629 0.0179,0.50757 l 6.2e-4,0.032 c 3.4e-4,0.0133 -2.3e-4,0.0133 -1.8e-4,0.0192 1.8e-4,0.008 2.1e-4,0.0218 -9.6e-4,0.0326 -4.8e-4,0.008 -9.5e-4,0.0214 -0.005,0.0319 -9.6e-4,0.008 -0.005,0.021 -0.007,0.0311 -0.0103,0.0402 -0.0301,0.077 -0.0544,0.1039 -0.007,0.0173 -0.0196,0.0531 -0.0694,0.0879 -0.0136,0.007 -0.029,0.0133 -0.0438,0.0152 -0.007,6.8e-4 -0.015,0.002 -0.0223,0.001 l -0.0103,8e-5 -0.007,0 -0.0103,-6.1e-4 c -0.0561,-0.001 -0.11176,-0.006 -0.16697,-0.007 -0.11095,-0.002 -0.22152,-0.008 -0.33478,-0.0152 -0.2265,-0.007 -0.46358,-0.006 -0.73497,0.0238 l -0.30802,-0.0765 c -0.42504,0.0173 0.41689,0.0965 -0.29084,0.12492 -0.50114,0.024 -0.187,-0.0654 -0.36283,-0.0866 -0.24921,0.039 -0.6824,0.11693 -1.14276,0.0548 0.15292,-0.0152 0.27243,-0.002 0.41477,-0.007 z m -5.24237,0.0339 c 0.1017,-0.012 0.30411,-0.0449 0.37835,-0.0152 -0.11577,0.0603 -0.20522,0.0316 -0.37835,0.0152 z m -5.97288,-2.6578 c 0.0114,0.10401 0.007,0.26499 -0.007,0.44651 -0.002,-0.13169 -9.4e-4,-0.28098 0.007,-0.44651 z m 9.73934,-17.56488 c -0.005,8.2e-4 -0.007,0.001 -0.0103,0.001 -0.22663,-0.0212 -0.14629,-0.0133 0.0103,-0.001 z m 0.47056,0.023 c 0.0471,-0.007 0.0439,-0.0152 0.024,-0.0218 -0.0328,0.0133 -0.13854,0.0152 -0.25884,0.008 0.0335,0.0152 0.0941,0.0231 0.23479,0.012 z m 4.52943,4.6466 -0.0103,0.12597 c -0.0103,-0.28479 -9.5e-4,-0.20513 0.0103,-0.12597 z"/><rect style="opacity:.97233199;fill:url(#linearGradient8847);fill-opacity:1;fill-rule:nonzero;stroke:none" id="rect8827" width="14" height="20" x="548.571" y="743.934"/></g></svg>