<svg xmlns="http://www.w3.org/2000/svg" xmlns:svg="http://www.w3.org/2000/svg" id="svg18109" width="23.467" height="23.467" version="1.1" viewBox="0 0 22 22"><metadata id="metadata18114"/><g id="layer1" transform="translate(0,-1030.3622)"><g id="g5625"><path id="rect4144" d="m 7.8994245,1042.045 0.021181,6.9992 8.5570585,-0.026 -0.02118,-6.9992 z m 1.0029154,0.9968 6.7561531,-0.02 0.01513,4.9995 -6.7561531,0.02 z M 17,1035.2578 c -0.195278,0.1965 -0.194321,0.5118 0.0021,0.7071 0.19646,0.1953 0.511832,0.1943 0.707124,0 0.195273,-0.1964 0.194321,-0.5119 -0.0021,-0.7072 -0.196464,-0.1952 -0.511831,-0.1942 -0.707124,0 z m 1.422765,2.8242 c -0.195273,0.1964 -0.194321,0.5118 0.0021,0.7071 0.196465,0.1952 0.511832,0.1943 0.707124,0 0.195278,-0.1966 0.194321,-0.5119 -0.0021,-0.7072 -0.196459,-0.1953 -0.511832,-0.1943 -0.707124,0 z m -0.696404,3.5376 c -0.195272,0.1965 -0.194321,0.5119 0.0021,0.7071 0.196459,0.1953 0.511826,0.1943 0.707075,0 0.195277,-0.1965 0.194321,-0.5118 -0.0021,-0.7071 -0.196459,-0.1953 -0.511826,-0.1944 -0.707123,0 z" style="color:#000;text-decoration:none;text-decoration-line:none;text-decoration-style:solid;text-decoration-color:#000;clip-rule:nonzero;display:inline;overflow:visible;visibility:visible;opacity:1;isolation:auto;mix-blend-mode:normal;color-interpolation:sRGB;color-interpolation-filters:linearRGB;solid-color:#000;solid-opacity:1;fill:#4d4d4d;fill-opacity:1;fill-rule:nonzero;stroke:none;stroke-width:1;stroke-linecap:butt;stroke-linejoin:miter;stroke-miterlimit:4;stroke-dasharray:none;stroke-dashoffset:0;stroke-opacity:1;color-rendering:auto;image-rendering:auto;shape-rendering:auto;text-rendering:auto;enable-background:accumulate"/></g><path style="color:#000;text-decoration:none;text-decoration-line:none;text-decoration-style:solid;text-decoration-color:#000;clip-rule:nonzero;display:inline;overflow:visible;visibility:visible;opacity:1;isolation:auto;mix-blend-mode:normal;color-interpolation:sRGB;color-interpolation-filters:linearRGB;solid-color:#000;solid-opacity:1;fill:#4d4d4d;fill-opacity:1;fill-rule:nonzero;stroke:none;stroke-width:.93749994;stroke-linecap:butt;stroke-linejoin:miter;stroke-miterlimit:4;stroke-dasharray:none;stroke-dashoffset:0;stroke-opacity:1;color-rendering:auto;image-rendering:auto;shape-rendering:auto;text-rendering:auto;enable-background:accumulate" id="rect4144-5" d="m 2.2498705,1040.7368 3.0871413,3.0872 0.1941732,0.1942 0.1941732,-0.1942 L 8.8125,1040.7368 8.149654,1040.074 6,1042.2237 v -2.1424 -0.8441 H 5.0625118 v 0.8441 2.1424 L 2.9128585,1040.074 Z M 5.06237,1037.831 c 0,0.2597 0.2090552,0.4687 0.4687441,0.4687 0.2597245,0 0.4687441,-0.209 0.4687441,-0.4687 0,-0.2598 -0.2090551,-0.4688 -0.4687441,-0.4688 -0.2597243,0 -0.4687441,0.2091 -0.4687441,0.4688 z"/><path style="color:#000;text-decoration:none;text-decoration-line:none;text-decoration-style:solid;text-decoration-color:#000;clip-rule:nonzero;display:inline;overflow:visible;visibility:visible;opacity:1;isolation:auto;mix-blend-mode:normal;color-interpolation:sRGB;color-interpolation-filters:linearRGB;solid-color:#000;solid-opacity:1;fill:#4d4d4d;fill-opacity:1;fill-rule:nonzero;stroke:none;stroke-width:1;stroke-linecap:butt;stroke-linejoin:miter;stroke-miterlimit:4;stroke-dasharray:none;stroke-dashoffset:0;stroke-opacity:1;color-rendering:auto;image-rendering:auto;shape-rendering:auto;text-rendering:auto;enable-background:accumulate" id="rect4144-5-2" d="m 7.2811509,1034.4559 c -0.195274,0.1964 -0.194323,0.5118 0.0021,0.7071 0.196458,0.1953 0.511827,0.1943 0.707124,0 0.195273,-0.1964 0.194316,-0.5117 -0.0021,-0.707 -0.19646,-0.1953 -0.511826,-0.1944 -0.707123,0 z"/><path style="color:#000;text-decoration:none;text-decoration-line:none;text-decoration-style:solid;text-decoration-color:#000;clip-rule:nonzero;display:inline;overflow:visible;visibility:visible;opacity:1;isolation:auto;mix-blend-mode:normal;color-interpolation:sRGB;color-interpolation-filters:linearRGB;solid-color:#000;solid-opacity:1;fill:#4d4d4d;fill-opacity:1;fill-rule:nonzero;stroke:none;stroke-width:1;stroke-linecap:butt;stroke-linejoin:miter;stroke-miterlimit:4;stroke-dasharray:none;stroke-dashoffset:0;stroke-opacity:1;color-rendering:auto;image-rendering:auto;shape-rendering:auto;text-rendering:auto;enable-background:accumulate" id="rect4144-5-2-9" d="m 10.718963,1032.9868 c -0.195274,0.1964 -0.194323,0.5118 0.0021,0.7071 0.196458,0.1953 0.511827,0.1943 0.707124,0 0.195273,-0.1964 0.194316,-0.5117 -0.0021,-0.707 -0.19646,-0.1953 -0.511826,-0.1944 -0.707123,0 z"/><path style="color:#000;text-decoration:none;text-decoration-line:none;text-decoration-style:solid;text-decoration-color:#000;clip-rule:nonzero;display:inline;overflow:visible;visibility:visible;opacity:1;isolation:auto;mix-blend-mode:normal;color-interpolation:sRGB;color-interpolation-filters:linearRGB;solid-color:#000;solid-opacity:1;fill:#4d4d4d;fill-opacity:1;fill-rule:nonzero;stroke:none;stroke-width:1;stroke-linecap:butt;stroke-linejoin:miter;stroke-miterlimit:4;stroke-dasharray:none;stroke-dashoffset:0;stroke-opacity:1;color-rendering:auto;image-rendering:auto;shape-rendering:auto;text-rendering:auto;enable-background:accumulate" id="rect4144-5-2-9-1" d="m 14.093963,1033.4556 c -0.195274,0.1964 -0.194323,0.5118 0.0021,0.7071 0.196458,0.1953 0.511827,0.1943 0.707124,0 0.195273,-0.1964 0.194316,-0.5117 -0.0021,-0.707 -0.19646,-0.1953 -0.511826,-0.1944 -0.707123,0 z"/></g></svg>