<svg xmlns="http://www.w3.org/2000/svg" xmlns:svg="http://www.w3.org/2000/svg" id="svg18109" width="22" height="22" version="1.1"><metadata id="metadata18114"/><g id="layer1" transform="translate(0,-1030.3622)"><path style="color:#000;text-decoration:none;text-decoration-line:none;text-decoration-style:solid;text-decoration-color:#000;clip-rule:nonzero;display:inline;overflow:visible;visibility:visible;opacity:1;isolation:auto;mix-blend-mode:normal;color-interpolation:sRGB;color-interpolation-filters:linearRGB;solid-color:#000;solid-opacity:1;fill:#4d4d4d;fill-opacity:1;fill-rule:nonzero;stroke:none;stroke-width:1;stroke-linecap:butt;stroke-linejoin:miter;stroke-miterlimit:4;stroke-dasharray:none;stroke-dashoffset:0;stroke-opacity:1;color-rendering:auto;image-rendering:auto;shape-rendering:auto;text-rendering:auto;enable-background:accumulate" id="rect4144" d="m 9.599609,1033.3622 3.292969,3.293 0.207031,0.207 -0.207031,0.207 -3.292969,3.293 -0.707031,-0.707 2.292969,-2.293 -2.285156,0 -0.900391,0 0,-1 0.900391,0 2.285156,0 -2.292969,-2.293 0.707031,-0.707 z m -3.099609,3 c 0.277,0 0.5,0.223 0.5,0.5 0,0.277 -0.223,0.5 -0.5,0.5 -0.277,0 -0.5,-0.223 -0.5,-0.5 0,-0.277 0.223,-0.5 0.5,-0.5 z m 8.550781,2 L 20,1043.3114 13.949219,1049.3622 9,1044.413 l 6.050781,-6.0508 z m -11.550781,0 c 0.277,0 0.5,0.223 0.5,0.5 0,0.277 -0.223,0.5 -0.5,0.5 -0.277,0 -0.5,-0.223 -0.5,-0.5 0,-0.277 0.223,-0.5 0.5,-0.5 z m 11.550781,1.4141 -4.777343,4.7773 3.535156,3.5352 4.777343,-4.7774 -3.535156,-3.5351 z M 2.5,1041.3622 c 0.277,0 0.5,0.223 0.5,0.5 0,0.277 -0.223,0.5 -0.5,0.5 -0.277,0 -0.5,-0.223 -0.5,-0.5 0,-0.277 0.223,-0.5 0.5,-0.5 z m 1,3 c 0.277,0 0.5,0.223 0.5,0.5 0,0.277 -0.223,0.5 -0.5,0.5 -0.277,0 -0.5,-0.223 -0.5,-0.5 0,-0.277 0.223,-0.5 0.5,-0.5 z m 3,2 c 0.277,0 0.5,0.223 0.5,0.5 0,0.277 -0.223,0.5 -0.5,0.5 -0.277,0 -0.5,-0.223 -0.5,-0.5 0,-0.277 0.223,-0.5 0.5,-0.5 z"/></g></svg>