<?xml version="1.0" encoding="UTF-8" standalone="no"?>
<svg
   xmlns:dc="http://purl.org/dc/elements/1.1/"
   xmlns:cc="http://creativecommons.org/ns#"
   xmlns:rdf="http://www.w3.org/1999/02/22-rdf-syntax-ns#"
   xmlns:svg="http://www.w3.org/2000/svg"
   xmlns="http://www.w3.org/2000/svg"
   xmlns:sodipodi="http://sodipodi.sourceforge.net/DTD/sodipodi-0.dtd"
   xmlns:inkscape="http://www.inkscape.org/namespaces/inkscape"
   height="24px"
   version="1.1"
   viewBox="0 0 24 24"
   width="24px"
   id="svg2"
   inkscape:version="0.48.5 r10040"
   sodipodi:docname="orienration.svg">
  <metadata
     id="metadata16">
    <rdf:RDF>
      <cc:Work
         rdf:about="">
        <dc:format>image/svg+xml</dc:format>
        <dc:type
           rdf:resource="http://purl.org/dc/dcmitype/StillImage" />
      </cc:Work>
    </rdf:RDF>
  </metadata>
  <sodipodi:namedview
     pagecolor="#ffffff"
     bordercolor="#666666"
     borderopacity="1"
     objecttolerance="10"
     gridtolerance="10"
     guidetolerance="10"
     inkscape:pageopacity="0"
     inkscape:pageshadow="2"
     inkscape:window-width="1680"
     inkscape:window-height="999"
     id="namedview14"
     showgrid="false"
     inkscape:zoom="6.9532167"
     inkscape:cx="3.520368"
     inkscape:cy="-13.577466"
     inkscape:window-x="-3"
     inkscape:window-y="-3"
     inkscape:window-maximized="1"
     inkscape:current-layer="svg2" />
  <title
     id="title4" />
  <desc
     id="desc6" />
  <defs
     id="defs8" />
  <g
     style="fill:#4d4d4d;fill-rule:evenodd;stroke:none;fill-opacity:1"
     transform="translate(-210.43145,-119.47801)"
     id="Icons-Device">
    <g
       transform="translate(210,124)"
       id="screen-rotation"
       style="fill:#4d4d4d;fill-opacity:1">
      <path
         style="fill:#4d4d4d;fill-opacity:1"
         d="M 3.4627,-1.99074 C 2.5224457,-2.036891 1.8602276,-1.0883082 1.99395,-0.2087812 1.99834,5.4056327 1.98519,11.020415 2.00053,16.634599 c 0.018209,0.888494 0.9235069,1.434113 1.7441287,1.312161 5.6144355,-0.0048 11.2293083,0.0095 16.8434703,-0.0072 0.905465,-0.03776 1.472365,-0.955505 1.343321,-1.799928 -0.005,-2.960099 0.01,-5.920679 -0.0075,-8.880477 -0.0501,-0.910103 -0.994697,-1.432922 -1.830828,-1.312422 -2.033049,0 -4.066099,0 -6.099149,0 -0.0048,-2.1980052 0.0095,-4.3964471 -0.0072,-6.594179 -0.03776,-0.9054648 -0.955505,-1.4723649 -1.799928,-1.343321 -2.9080495,0 -5.8160993,0 -8.7241491,0 z m 0,1.4375 c 3.0208333,0 6.0416667,0 9.0625,0 0,5.65625 0,11.3125 0,16.96875 -3.0104167,0 -6.0208333,0 -9.03125,0 l 0,-10.46875 L 3.4627,4.5369658 z m 10.53125,7.96875 c 2.166667,0 4.333333,0 6.5,0 0,3.020833 0,6.041667 0,9.0625 -2.166667,0 -4.333333,0 -6.5,0 0,-3.020833 0,-6.041667 0,-9.0625 z"
         id="Shape"
         inkscape:connector-curvature="0"
         sodipodi:nodetypes="ccccccccccccccccccccccccc" />
    </g>
  </g>
  <g
     style="fill:#4d4d4d;fill-rule:evenodd;stroke:none;fill-opacity:1"
     transform="matrix(0,-1,1,0,-128.39125,234.46219)"
     id="Icons-Device-2">
    <g
       transform="translate(210,124)"
       id="screen-rotation-5"
       style="fill:#4d4d4d;fill-opacity:1" />
  </g>
  <path
     inkscape:connector-curvature="0"
     style="text-decoration:none;color:#000000;fill:#4d4d4d;fill-opacity:1;fill-rule:nonzero;stroke:none;visibility:visible;display:inline;overflow:visible;enable-background:accumulate"
     d="m 16.609332,1.3013175 -2.376888,2.3780194 -0.149405,0.1495368 0.154564,0.1442017 2.458432,2.2936168 0.510343,-0.5105811 -1.711863,-1.5970985 1.677736,-0.029285 0.661059,-0.011539 -0.01238,-0.7093353 -0.661058,0.011539 -1.677737,0.029285 1.655079,-1.6558716 z m 2.312847,2.0882834 c -0.203371,0.00355 -0.364336,0.1645888 -0.360914,0.3610673 0.0034,0.1964864 0.169915,0.351809 0.373288,0.3482595 0.20337,-0.00355 0.364332,-0.1645903 0.360911,-0.3610673 -0.0034,-0.1964864 -0.169915,-0.3518097 -0.373285,-0.3482595 z m 2.22733,1.3802238 c -0.203371,0.00355 -0.364335,0.1645888 -0.360912,0.361067 0.0034,0.1964868 0.169914,0.3518092 0.373286,0.3482584 0.203369,-0.00355 0.364332,-0.1645897 0.360912,-0.3610677 -0.0034,-0.1964832 -0.169918,-0.3518102 -0.373286,-0.3482577 z m 0.771334,2.1151897 c -0.203371,0.00355 -0.364333,0.1645897 -0.360913,0.3610672 0.0034,0.1964867 0.169916,0.35181 0.373287,0.3482594 0.203371,-0.00355 0.364334,-0.1645891 0.360912,-0.3610676 -0.0034,-0.1964869 -0.169916,-0.3518097 -0.373286,-0.348259 z m -0.697051,2.1408187 c -0.203365,0.00355 -0.364328,0.1645913 -0.360908,0.3610683 0.0034,0.1964869 0.169916,0.3518096 0.373287,0.3482587 0.20337,-0.00355 0.364334,-0.1645891 0.360912,-0.3610676 -0.0034,-0.196483 -0.169916,-0.3518092 -0.373291,-0.3482594 z"
     id="rect4144"
     sodipodi:nodetypes="ccccccccccccccssssssssssssssssssss" />
</svg>
