<?xml version="1.0" encoding="iso-8859-1"?>
<!-- Generator: Adobe Illustrator 19.1.0, SVG Export Plug-In . SVG Version: 6.00 Build 0)  -->
<svg version="1.1" id="Capa_1" xmlns="http://www.w3.org/2000/svg" xmlns:xlink="http://www.w3.org/1999/xlink" x="0px" y="0px"
	 viewBox="0 0 432 432" style="enable-background:new 0 0 432 432;" xml:space="preserve">
<g>
	<g>
		<polygon points="325.719,96 255.469,96 290.594,131.125 		"/>
		<path d="M129.188,130.281c0.206-4.941,2.322-9.777,5.812-13.281l21-21H0v48h133.875
			C130.689,140.218,128.983,135.222,129.188,130.281z"/>
		<rect width="336" height="48"/>
		<path d="M135,315c-3.494-3.5-5.616-8.335-5.828-13.275c-0.212-4.941,1.49-9.939,4.671-13.725H0v48h156L135,315z"/>
		<rect y="384" width="336" height="48"/>
		<polygon points="255.438,336 325.75,336 290.594,300.844 		"/>
		<polygon points="384,240 384,192 371.141,192 432,131.141 375.438,74.578 290.594,159.422 205.719,74.578 149.156,131.141 
			210.038,192 181.781,192 0,192 0,240 181.719,240 210.016,240 149.156,300.859 205.719,357.422 290.594,272.547 375.438,357.422 
			432,300.859 371.163,240 		"/>
	</g>
	<g>
	</g>
	<g>
	</g>
	<g>
	</g>
	<g>
	</g>
	<g>
	</g>
	<g>
	</g>
	<g>
	</g>
	<g>
	</g>
	<g>
	</g>
	<g>
	</g>
	<g>
	</g>
	<g>
	</g>
	<g>
	</g>
	<g>
	</g>
	<g>
	</g>
</g>
<g>
</g>
<g>
</g>
<g>
</g>
<g>
</g>
<g>
</g>
<g>
</g>
<g>
</g>
<g>
</g>
<g>
</g>
<g>
</g>
<g>
</g>
<g>
</g>
<g>
</g>
<g>
</g>
<g>
</g>
</svg>
