<svg xmlns="http://www.w3.org/2000/svg" xmlns:svg="http://www.w3.org/2000/svg" id="svg4355" width="22" height="22" version="1.1"><metadata id="metadata4360"/><g id="layer1" transform="translate(-544.57141,-742.93359)"><path style="opacity:1;fill:#4d4d4d;fill-opacity:1;stroke:none" id="path4162" d="m 547.57141,745.93359 0,1 0,3 1,0 0,-3 3,0 0,-1 -3,0 z"/><path style="opacity:1;fill:#4d4d4d;fill-opacity:1;stroke:none" id="path4176" d="M 6 6 L 6 16 L 16 16 L 16 6 L 6 6 z M 7 7 L 15 7 L 15 15 L 7 15 L 7 7 z" transform="translate(544.57141,742.93359)"/><path style="opacity:1;fill:#4d4d4d;fill-opacity:1;stroke:none" id="rect4134" d="m 562.57141,757.93359 0,3 -3,0 0,1 4,0 0,-1 0,-3 z"/><path id="path4170" d="m 563.57141,745.93359 0,1 0,3 -1,0 0,-3 -3,0 0,-1 3,0 z" style="opacity:1;fill:#4d4d4d;fill-opacity:1;stroke:none"/><path id="path4172" d="m 548.57141,757.93359 0,3 3,0 0,1 -4,0 0,-1 0,-3 z" style="opacity:1;fill:#4d4d4d;fill-opacity:1;stroke:none"/><path style="fill:#4d4d4d;fill-opacity:1;fill-rule:evenodd;stroke:none;stroke-width:1px;stroke-linecap:butt;stroke-linejoin:miter;stroke-opacity:1" id="path4181" d="m 549.57141,755.93359 -2,-2 2,-2 z"/><path id="path4183" d="m 561.57141,755.93359 2,-2 -2,-2 z" style="fill:#4d4d4d;fill-opacity:1;fill-rule:evenodd;stroke:none;stroke-width:1px;stroke-linecap:butt;stroke-linejoin:miter;stroke-opacity:1"/><path id="path4185" d="m 553.57141,747.93359 2,-2 2,2 z" style="fill:#4d4d4d;fill-opacity:1;fill-rule:evenodd;stroke:none;stroke-width:1px;stroke-linecap:butt;stroke-linejoin:miter;stroke-opacity:1"/><path style="fill:#4d4d4d;fill-opacity:1;fill-rule:evenodd;stroke:none;stroke-width:1px;stroke-linecap:butt;stroke-linejoin:miter;stroke-opacity:1" id="path4187" d="m 553.57141,759.93359 2,2 2,-2 z"/></g></svg>