<svg xmlns="http://www.w3.org/2000/svg" xmlns:svg="http://www.w3.org/2000/svg" id="svg4355" width="22" height="22" version="1.1"><metadata id="metadata4360"/><g id="layer1" transform="translate(-544.57141,-742.93359)"><path style="opacity:1;fill:#4d4d4d;fill-opacity:1;stroke:none" id="rect4134" d="M 3 3 L 3 4 L 3 11 L 4 11 L 4 4 L 9 4 L 9 3 L 4 3 L 3 3 z M 12 3 L 14 5 L 10 12 L 17 8 L 19 10 L 19 3 L 12 3 z M 3 13 L 3 19 L 9 19 L 9 13 L 3 13 z M 18 13 L 18 18 L 11 18 L 11 19 L 19 19 L 19 18 L 19 13 L 18 13 z M 4 14 L 8 14 L 8 18 L 4 18 L 4 14 z" transform="translate(544.57141,742.93359)"/></g></svg>