<svg xmlns="http://www.w3.org/2000/svg" xmlns:svg="http://www.w3.org/2000/svg" id="svg4355" width="22" height="22" version="1.1"><metadata id="metadata4360"/><g id="layer1" transform="translate(-544.57141,-742.93359)"><path style="opacity:1;fill:#4d4d4d;fill-opacity:1;stroke:none" id="path4162" d="m 547.57141,745.93359 0,1 0,3 1,0 0,-3 3,0 0,-1 -3,0 z"/><path style="opacity:1;fill:#4d4d4d;fill-opacity:1;stroke:none" id="path4118" d="M 5 5 L 5 17 L 17 17 L 17 5 L 5 5 z M 6 6 L 16 6 L 16 16 L 6 16 L 6 6 z" transform="translate(544.57141,742.93359)"/><path style="opacity:1;fill:#4d4d4d;fill-opacity:1;stroke:none" id="rect4134" d="m 562.57141,757.93359 0,3 -3,0 0,1 4,0 0,-1 0,-3 z"/><path id="path4170" d="m 563.57141,745.93359 0,1 0,3 -1,0 0,-3 -3,0 0,-1 3,0 z" style="opacity:1;fill:#4d4d4d;fill-opacity:1;stroke:none"/><path id="path4172" d="m 548.57141,757.93359 0,3 3,0 0,1 -4,0 0,-1 0,-3 z" style="opacity:1;fill:#4d4d4d;fill-opacity:1;stroke:none"/></g></svg>